<svg width="135" height="91" viewBox="0 0 135 91" fill="none" xmlns="http://www.w3.org/2000/svg">
<circle cx="89.7302" cy="45.2703" r="45.0892" stroke="#0B111E" stroke-width="0.362162"/>
<path d="M0.21773 69.1984V67.8425C1.29552 67.773 2.19948 67.3905 2.9296 66.6952C3.65972 65.9998 4.19862 64.922 4.54629 63.4618C4.92874 62.0363 5.11996 60.1589 5.11996 57.8295V27.6338H11.0652V57.8295C11.0652 60.6804 10.7523 62.9229 10.1265 64.557C9.53544 66.2258 8.45764 67.4079 6.8931 68.1033C5.32856 68.8334 3.10344 69.1984 0.21773 69.1984ZM28.1961 62.5752C26.3187 62.5752 24.6672 62.2797 23.2417 61.6887C21.851 61.0628 20.7732 60.0546 20.0084 58.6639C19.2435 57.2732 18.861 55.4131 18.861 53.0837V44.1136C18.861 42.5491 18.635 41.2975 18.1831 40.3587C17.7658 39.3853 16.775 38.8985 15.2104 38.8985H14.6889V37.5426H20.1127C21.3295 37.5426 22.2682 37.7338 22.9288 38.1162C23.6242 38.4987 24.1109 39.1593 24.3891 40.098C24.6672 41.0367 24.8063 42.3753 24.8063 44.1136V53.0837C24.8063 54.8568 25.0149 56.2649 25.4321 57.3079C25.8841 58.351 26.4751 59.0985 27.2052 59.5504C27.9701 60.0024 28.8219 60.2284 29.7607 60.2284C30.5255 60.2284 31.2209 60.072 31.8467 59.7591C32.4725 59.4114 33.0288 58.9942 33.5156 58.5074C34.0023 58.0207 34.3847 57.5513 34.6629 57.0993V37.5426H40.6081V62.0537H36.9054L35.0801 59.8112H34.8193C34.1588 60.5066 33.2722 61.1498 32.1596 61.7408C31.0471 62.2971 29.7259 62.5752 28.1961 62.5752ZM48.3127 62.0537V44.1136C48.3127 42.5491 48.0867 41.2975 47.6347 40.3587C47.2175 39.3853 46.2266 38.8985 44.6621 38.8985H43.932V37.5426H48.9385C50.1554 37.5426 51.0941 37.7164 51.7547 38.0641C52.45 38.377 52.9715 38.8637 53.3192 39.5243C53.9798 38.9333 54.9011 38.377 56.0832 37.8555C57.2653 37.2992 58.8125 37.0211 60.7247 37.0211C62.6022 37.0211 64.2536 37.334 65.6791 37.9598C67.1046 38.5508 68.1997 39.5417 68.9646 40.9324C69.7643 42.2883 70.1641 44.1484 70.1641 46.5126V62.0537H64.271V46.5126C64.271 44.7742 64.0276 43.4009 63.5409 42.3927C63.0541 41.3844 62.4109 40.6543 61.6113 40.2023C60.8464 39.7503 59.9772 39.5243 59.0037 39.5243C57.9954 39.5243 57.0915 39.7155 56.2918 40.098C55.4922 40.4457 54.7968 40.8803 54.2058 41.4018V62.0537H48.3127ZM86.932 62.5752C84.4982 62.5752 82.4122 62.0189 80.6738 60.9064C78.9702 59.7591 77.649 58.2293 76.7103 56.3171C75.8064 54.3701 75.3544 52.1971 75.3544 49.7981C75.3544 47.1906 75.8237 44.9307 76.7625 43.0185C77.7012 41.1063 79.005 39.6286 80.6738 38.5856C82.3427 37.5426 84.2549 37.0211 86.4105 37.0211C88.6704 37.0211 90.6173 37.4557 92.2514 38.3248C93.9203 39.194 95.2067 40.4457 96.1106 42.0797C97.0146 43.7138 97.4666 45.6434 97.4666 47.8685L97.3101 50.6847H81.5604C81.5604 53.8833 82.1167 56.2997 83.2292 57.9338C84.3766 59.5331 85.9063 60.3327 87.8186 60.3327C89.5917 60.3327 91.0346 59.9503 92.1471 59.1854C93.2944 58.3857 94.3201 57.3427 95.224 56.0563L96.58 57.0993C95.9889 58.1076 95.2588 59.0289 94.3896 59.8634C93.5204 60.663 92.4774 61.3236 91.2605 61.8451C90.0437 62.3319 88.6008 62.5752 86.932 62.5752ZM81.5604 48.4422H91.2605C91.2605 45.1741 90.8259 42.8272 89.9568 41.4018C89.1223 39.9763 87.9402 39.2636 86.4105 39.2636C85.5413 39.2636 84.7416 39.5939 84.0115 40.2544C83.2814 40.915 82.6903 41.9233 82.2384 43.2792C81.7864 44.6352 81.5604 46.3562 81.5604 48.4422Z" fill="#0B111E"/>
</svg>
