<svg width="135" height="91" viewBox="0 0 135 91" fill="none" xmlns="http://www.w3.org/2000/svg">
<circle cx="89.7302" cy="45.2703" r="45.0892" stroke="white" stroke-width="0.362162"/>
<path d="M0.21773 69.1987V67.8428C1.29552 67.7732 2.19948 67.3908 2.9296 66.6954C3.65972 66.0001 4.19862 64.9223 4.54629 63.462C4.92874 62.0366 5.11996 60.1591 5.11996 57.8297V27.6341H11.0652V57.8297C11.0652 60.6806 10.7523 62.9231 10.1265 64.5572C9.53544 66.2261 8.45764 67.4082 6.8931 68.1035C5.32856 68.8336 3.10344 69.1987 0.21773 69.1987ZM28.1961 62.5755C26.3187 62.5755 24.6672 62.2799 23.2417 61.6889C21.851 61.0631 20.7732 60.0548 20.0084 58.6641C19.2435 57.2734 18.861 55.4133 18.861 53.0839V44.1139C18.861 42.5493 18.635 41.2977 18.1831 40.359C17.7658 39.3855 16.775 38.8988 15.2104 38.8988H14.6889V37.5428H20.1127C21.3295 37.5428 22.2682 37.734 22.9288 38.1165C23.6242 38.4989 24.1109 39.1595 24.3891 40.0982C24.6672 41.037 24.8063 42.3755 24.8063 44.1139V53.0839C24.8063 54.8571 25.0149 56.2652 25.4321 57.3082C25.8841 58.3512 26.4751 59.0987 27.2052 59.5507C27.9701 60.0027 28.8219 60.2287 29.7607 60.2287C30.5255 60.2287 31.2209 60.0722 31.8467 59.7593C32.4725 59.4116 33.0288 58.9944 33.5156 58.5077C34.0023 58.0209 34.3847 57.5516 34.6629 57.0996V37.5428H40.6081V62.054H36.9054L35.0801 59.8114H34.8193C34.1588 60.5068 33.2722 61.15 32.1596 61.741C31.0471 62.2973 29.7259 62.5755 28.1961 62.5755ZM48.3127 62.054V44.1139C48.3127 42.5493 48.0867 41.2977 47.6347 40.359C47.2175 39.3855 46.2266 38.8988 44.6621 38.8988H43.932V37.5428H48.9385C50.1554 37.5428 51.0941 37.7167 51.7547 38.0643C52.45 38.3772 52.9715 38.864 53.3192 39.5246C53.9798 38.9335 54.9011 38.3772 56.0832 37.8557C57.2653 37.2994 58.8125 37.0213 60.7247 37.0213C62.6022 37.0213 64.2536 37.3342 65.6791 37.96C67.1046 38.5511 68.1997 39.542 68.9646 40.9327C69.7643 42.2886 70.1641 44.1487 70.1641 46.5129V62.054H64.271V46.5129C64.271 44.7745 64.0276 43.4012 63.5409 42.3929C63.0541 41.3846 62.4109 40.6545 61.6113 40.2025C60.8464 39.7506 59.9772 39.5246 59.0037 39.5246C57.9954 39.5246 57.0915 39.7158 56.2918 40.0982C55.4922 40.4459 54.7968 40.8805 54.2058 41.402V62.054H48.3127ZM86.932 62.5755C84.4982 62.5755 82.4122 62.0192 80.6738 60.9066C78.9702 59.7593 77.649 58.2295 76.7103 56.3173C75.8064 54.3703 75.3544 52.1973 75.3544 49.7984C75.3544 47.1908 75.8237 44.9309 76.7625 43.0187C77.7012 41.1065 79.005 39.6289 80.6738 38.5858C82.3427 37.5428 84.2549 37.0213 86.4105 37.0213C88.6704 37.0213 90.6173 37.4559 92.2514 38.3251C93.9203 39.1943 95.2067 40.4459 96.1106 42.08C97.0146 43.7141 97.4666 45.6437 97.4666 47.8688L97.3101 50.685H81.5604C81.5604 53.8836 82.1167 56.2999 83.2292 57.934C84.3766 59.5333 85.9063 60.333 87.8186 60.333C89.5917 60.333 91.0346 59.9505 92.1471 59.1856C93.2944 58.386 94.3201 57.3429 95.224 56.0565L96.58 57.0996C95.9889 58.1078 95.2588 59.0292 94.3896 59.8636C93.5204 60.6633 92.4774 61.3238 91.2605 61.8453C90.0437 62.3321 88.6008 62.5755 86.932 62.5755ZM81.5604 48.4425H91.2605C91.2605 45.1743 90.8259 42.8275 89.9568 41.402C89.1223 39.9766 87.9402 39.2638 86.4105 39.2638C85.5413 39.2638 84.7416 39.5941 84.0115 40.2547C83.2814 40.9153 82.6903 41.9235 82.2384 43.2795C81.7864 44.6354 81.5604 46.3564 81.5604 48.4425Z" fill="white"/>
</svg>
